<?xml version="1.0" encoding="UTF-8"?>
<svg xmlns="http://www.w3.org/2000/svg" xmlns:xlink="http://www.w3.org/1999/xlink" width="57px" height="57px" viewBox="0 0 57 57">
  <!-- Generator: Sketch 45.2 (43514) - http://www.bohemiancoding.com/sketch -->
  <title>logo-ltr</title>
  <desc>Created with Sketch.</desc>
  <defs>
    <linearGradient x1="830%" y1="1550%" x2="4850%" y2="5570%" id="linearGradient-1">
      <stop stop-color="#70C5A2" offset="0%"></stop>
      <stop stop-color="#4F2367" offset="100%"></stop>
    </linearGradient>
  </defs>
  <g id="Page-1" stroke="none" stroke-width="1" fill="none" fill-rule="evenodd">
    <g id="logo" fill-rule="nonzero" fill="url(#linearGradient-1)">
      <path d="M28.4,1.77635684e-15 C12.7151131,8.15936674e-16 1.92084465e-15,12.7151131 0,28.4 C-1.92084465e-15,44.0848869 12.7151131,56.8 28.4,56.8 C44.0848869,56.8 56.8,44.0848869 56.8,28.4 C56.8133032,20.8637813 53.8254411,13.6323982 48.4965214,8.30347858 C43.1676018,2.97455894 35.9362187,-0.0133031532 28.4,1.77635684e-15 Z M50.82,28.3 C50.8721205,38.3456996 44.2326901,47.198679 34.5743462,49.9618639 C24.9160024,52.7250488 14.5988995,48.7232154 9.33,40.17 C8.50551524,37.859157 9.18926413,35.2791975 11.05,33.68 C13.59,31.14 16.83,31.45 21.7,36.32 L26.57,41.19 C31.44,46.06 38.34,44.64 41.68,36.83 C41.68,36.73 41.58,36.63 41.58,36.73 C37.83,38.25 34.38,37.14 29.92,32.67 L24.44,27.19 C19.44,22.63 12.57,22.52 8.11,26.99 C7.51,27.59 7,28.2 6.49,28.81 C6.33429347,28.7233957 6.17009725,28.6530259 6,28.6 C5.89603681,18.5365408 12.5134776,9.63802458 22.1810512,6.84123376 C31.8486248,4.04444293 42.1949425,8.03541095 47.48,16.6 C48.6,18.53 47.58,21.27 45.76,22.99 C43.22,25.53 39.98,25.22 35.11,20.35 L30.24,15.48 C25.37,10.61 18.24,12.03 15.03,20.15 C18.88,18.53 22.33,19.54 26.9,24.15 L32.38,29.63 C37.38,34.19 44.25,34.3 48.71,29.83 C49.32,29.22 49.83,28.61 50.33,28 C50.4541123,28.1532157 50.6271049,28.2591295 50.82,28.3 Z" id="logo-ltr"></path>
    </g>
  </g>
</svg>
