<?xml version="1.0" encoding="utf-8"?>
<!-- Generator: Adobe Illustrator 23.0.2, SVG Export Plug-In . SVG Version: 6.00 Build 0)  -->
<svg version="1.1"
	 id="Layer_1" xmlns:cc="http://creativecommons.org/ns#" xmlns:dc="http://purl.org/dc/elements/1.1/" xmlns:inkscape="http://www.inkscape.org/namespaces/inkscape" xmlns:rdf="http://www.w3.org/1999/02/22-rdf-syntax-ns#" xmlns:sodipodi="http://sodipodi.sourceforge.net/DTD/sodipodi-0.dtd" xmlns:svg="http://www.w3.org/2000/svg"
	 xmlns="http://www.w3.org/2000/svg" xmlns:xlink="http://www.w3.org/1999/xlink" x="0px" y="0px" viewBox="0 0 971.3 421.6"
	 style="enable-background:new 0 0 971.3 421.6;" xml:space="preserve">
<style type="text/css">
	.st0{fill:#FFFFFF;}
	.st1{fill:#F48020;}
</style>
<sodipodi:namedview  bordercolor="#666666" borderopacity="1" gridtolerance="10" guidetolerance="10" id="namedview17" inkscape:current-layer="g3" inkscape:cx="499.99951" inkscape:cy="210.80051" inkscape:pageopacity="0" inkscape:pageshadow="2" inkscape:window-height="931" inkscape:window-maximized="1" inkscape:window-width="1680" inkscape:window-x="0" inkscape:window-y="1" inkscape:zoom="0.3100003" objecttolerance="10" pagecolor="#ffffff" showgrid="false">
	</sodipodi:namedview>
<g id="g3" transform="translate(0,-2.6367188e-5)">
	<path id="path5" inkscape:connector-curvature="0" class="st0" d="M444,327.8h-62.8v89.9h-75.7V97.2h134
		c65.7,0,114.7,49.6,114.7,115.3C554.4,268.3,510.3,327.8,444,327.8 M440.1,167.8h-59v86h60.2c21.6,0,37.4-17.1,37.4-42.9
		C478.7,187.1,464.5,167.8,440.1,167.8"/>
	<polygon id="polygon7" class="st0" points="966.8,97.2 862.1,254.4 971.3,417.7 880.2,417.7 819,322.4 757.8,417.7 666.7,417.7 
		776.1,254.4 671.1,97.2 762.3,97.2 819,190 875.9,97.2 	"/>
	<rect id="rect9" x="577.4" y="97.2" class="st1" width="75.7" height="320.5"/>
	<path id="path11" inkscape:connector-curvature="0" class="st1" d="M654.7,39.5c0,21.8-17.7,39.5-39.5,39.5
		c-21.8,0-39.7-17.7-39.7-39.5c0-21.8,17.7-39.5,39.7-39.5C637-0.2,654.7,17.5,654.7,39.5"/>
	<path id="path13" inkscape:connector-curvature="0" class="st0" d="M79.9,290.8c3.3,35.4,29.3,58.6,68.3,58.6
		c24.8,0,51.3-11,70.2-32.5l55.7,47.4c-34.2,39-76.7,57.4-124.7,57.4C56.7,421.6,0,359.8,0,255C0,160.7,58.6,94.6,140.7,94.6
		c82.8,0,138.5,57.4,138.5,145.6V291H79.9L79.9,290.8L79.9,290.8L79.9,290.8z M140.5,166.8c-30.3,0-56.3,23.2-60.2,52.5h117.6
		C194.6,193.8,178.2,166.8,140.5,166.8"/>
</g>
</svg>
