<?xml version="1.0" encoding="utf-8"?>
<!-- Generator: Adobe Illustrator 23.0.2, SVG Export Plug-In . SVG Version: 6.00 Build 0)  -->
<svg version="1.1" id="Layer_1" xmlns="http://www.w3.org/2000/svg" xmlns:xlink="http://www.w3.org/1999/xlink" x="0px" y="0px"
	 viewBox="0 0 990 385.1" style="enable-background:new 0 0 990 385.1;" xml:space="preserve">
<style type="text/css">
	.st0{fill:#FFFFFF;}
</style>
<g>
	<path class="st0" d="M366.6,94c10-9.9,16.2-23.7,16.2-38.8c0-15.2-6.2-28.9-16.2-38.8c-9.7-9.6-23-15.7-37.6-16.1h-2.9
		c-14.7,0.4-27.9,6.5-37.6,16.1c-10,9.9-16.2,23.6-16.2,38.8c0,15.2,6.2,28.9,16.2,38.8l12.2,12.1c20.4,20.3,21.8,25.6,2.4,44.9
		L292,162c-9.1,9.1-14.7,21.6-14.7,35.4v177.7h100.5V197.4c0-13.8-5.6-26.3-14.7-35.4l-11.1-11c-19.4-19.2-17.9-24.6,2.4-44.9
		L366.6,94L366.6,94z"/>
	<path class="st0" d="M129.9,126.5c-35.8,0-68.6,14.6-92,38.1c-23.4,23.3-38.1,56.1-38.1,91.9v118.7h98.7V258.4
		c0-14.2,3.4-26.4,9.2-35.8c5.8-9.3,13.3-14.8,22.1-14.8c8.8,0,16.3,5.5,22.1,14.8c5.8,9.4,9.2,21.6,9.2,35.8v116.7H260V256.4
		c0-35.8-14.7-68.6-38.1-91.9C198.5,141.1,165.7,126.4,129.9,126.5L129.9,126.5z"/>
	<path class="st0" d="M543,296.7c-5.8,10.7-13.3,17.1-22.1,17.1c-8.8,0-16.3-6.4-22.1-17.1c-5.7-10.8-9.1-24.9-9.1-41.3
		c0-16.4,3.4-30.4,9.1-41.3c5.8-10.7,13.3-17.1,22.1-17.1c8.7,0,16.3,6.4,22.1,17.1c4.2,8.1,7.2,17.9,8.4,29.1h98.6
		c-2.9-30.9-16.7-59-37.4-79.6c-23.3-23.5-56.1-38.1-91.8-38.1c-35.7,0-68.5,14.6-91.8,38.1c-23.4,23.4-38.1,56.1-38,91.9
		c0,35.7,14.6,68.5,38,91.9c18,18,49.2,38.1,91.8,38.1c31.9,0,61.5-11.8,84.1-31c16.5-14,40.9-42.1,45.1-86.7h-98.6
		C550.2,278.9,547.2,288.7,543,296.7L543,296.7z"/>
	<path class="st0" d="M911.4,356.7c0-3.3-1-6.4-2.6-9l-54.1-81.5l37.5-67.8c13.9-23.4,6-53.6-17.4-67.4c-23.5-13.8-53.8-6-67.6,17.4
		l-44.7,79.7v-53.1c0-27.2-22.1-49.2-49.4-49.2c-27.3,0-49.4,22-49.4,49.2v199h98.8V296l52.1,77.9l79.8,0l0,0
		C903.7,373.8,911.4,366.1,911.4,356.7L911.4,356.7z"/>
	<polygon class="st0" points="989.8,171.1 989.8,137.4 989,137.4 973.5,155.4 957.9,137.4 956.9,137.4 956.9,171.1 962.8,171.1 
		962.8,150.2 972.9,162.7 974,162.7 984.2,150.2 984.2,171.1 	"/>
	<polygon class="st0" points="934.3,143.1 924.6,143.1 924.6,138 949.9,138 949.9,143.1 940.2,143.1 940.2,171.1 934.3,171.1 	"/>
</g>
</svg>
