<?xml version="1.0" encoding="UTF-8"?>
<svg width="3152px" height="1133px" viewBox="0 0 3152 1133" version="1.1" xmlns="http://www.w3.org/2000/svg" xmlns:xlink="http://www.w3.org/1999/xlink">
    <!-- Generator: Sketch 45.1 (43504) - http://www.bohemiancoding.com/sketch -->
    <title>Fill-17</title>
    <desc>Created with Sketch.</desc>
    <defs></defs>
    <g id="Page-1" stroke="none" stroke-width="1" fill="none" fill-rule="evenodd">
        <path d="M1969.99933,606.144608 C1971.76075,606.144608 1973.40759,607.025317 1974.38631,608.491323 L2164.42465,893.267915 C2166.76446,896.772803 2164.25209,901.468993 2160.03767,901.468993 L992.600931,901.468993 C988.386508,901.468993 985.874143,896.772803 988.213955,893.267915 L1571.93301,18.5534701 C1574.02021,15.4254375 1578.61839,15.4254375 1580.70559,18.5534701 L1843.00065,411.60748 C1845.33908,415.112367 1842.8281,419.808557 1838.61506,419.808557 L1638.26774,419.808557 C1636.50494,419.808557 1634.85948,418.927849 1633.88076,417.461843 L1580.70559,337.777074 C1578.61839,334.649041 1574.02021,334.649041 1571.93163,337.777074 L1319.48725,716.073008 C1317.14882,719.577896 1319.66118,724.274086 1323.87422,724.274086 L1828.76438,724.274086 C1832.9788,724.274086 1835.49116,719.577896 1833.15135,716.073008 L1765.26642,614.345686 C1762.92798,610.840799 1765.43897,606.144608 1769.65339,606.144608 L1969.99933,606.144608 Z M2861.58624,1065.42553 C2860.29279,1065.12046 2859.16084,1064.33914 2858.41956,1063.23618 L2251.82555,162.012144 C2249.14753,158.032392 2252.74077,152.835109 2257.40797,153.933924 L2541.14235,220.695197 C2542.4358,220.998889 2543.56774,221.780207 2544.30903,222.883163 L3150.90304,1124.10858 C3153.57967,1128.08695 3149.98782,1133.28424 3145.31923,1132.1868 L2861.58624,1065.42553 Z M291.052222,1065.42553 L7.3178472,1132.1868 C2.6506457,1133.28424 -0.94258866,1128.08695 1.73542696,1124.10858 L608.329433,222.883163 C609.070719,221.780207 610.202663,220.998889 611.496117,220.695197 L895.230492,153.933924 C899.899074,152.835109 903.490928,158.032392 900.812912,162.012144 L294.218906,1063.23618 C293.477621,1064.33914 292.345676,1065.12046 291.052222,1065.42553 Z M944.984571,911.61039 L661.250196,978.371663 C656.582995,979.470477 652.989761,974.271814 655.667776,970.293442 L1262.26178,69.068023 C1263.00307,67.9664475 1264.13501,67.1837491 1265.42847,66.8800566 L1549.16284,0.11878363 C1553.83142,-0.98003103 1557.42328,4.2186323 1554.74526,8.197004 L948.151256,909.422423 C947.40997,910.523999 946.278025,911.306697 944.984571,911.61039 Z M749.858003,791.195764 L466.116726,857.958417 C461.449525,859.057232 457.857671,853.86133 460.532925,849.882958 L932.951446,147.295896 C933.694113,146.19294 934.826057,145.410242 936.119511,145.105169 L1219.86217,78.3425156 C1224.52799,77.243701 1228.12122,82.4396035 1225.44597,86.4179751 L753.026068,789.005037 C752.284782,790.107993 751.152837,790.890691 749.858003,791.195764 Z M2402.78005,791.195764 C2401.48659,790.890691 2400.35465,790.107993 2399.61198,789.005037 L1927.19346,86.4179751 C1924.5182,82.4396035 1928.11006,77.243701 1932.77726,78.3425156 L2216.51854,145.105169 C2217.81337,145.410242 2218.94532,146.19294 2219.6866,147.295896 L2692.1065,849.882958 C2694.78038,853.86133 2691.1899,859.057232 2686.52132,857.958417 L2402.78005,791.195764 Z M2207.65403,911.61039 C2206.36058,911.306697 2205.22863,910.523999 2204.48734,909.422423 L1597.89334,8.197004 C1595.21532,4.2186323 1598.80718,-0.98003103 1603.47576,0.11878363 L1887.21013,66.8800566 C1888.50359,67.1837491 1889.63553,67.9664475 1890.37682,69.068023 L2496.97082,970.293442 C2499.64884,974.271814 2496.05561,979.470477 2491.3884,978.371663 L2207.65403,911.61039 Z" id="Fill-17" fill="#FFFFFF"></path>
    </g>
</svg>