<?xml version="1.0" encoding="UTF-8"?>
<svg width="3162px" height="1144px" viewBox="0 0 3162 1144" version="1.1" xmlns="http://www.w3.org/2000/svg" xmlns:xlink="http://www.w3.org/1999/xlink">
    <!-- Generator: Sketch 45.1 (43504) - http://www.bohemiancoding.com/sketch -->
    <title>Fill 17</title>
    <desc>Created with Sketch.</desc>
    <defs></defs>
    <g id="Page-1" stroke="none" stroke-width="1" fill="none" fill-rule="evenodd">
        <path d="M1974.99933,612.144608 C1976.76075,612.144608 1978.40759,613.025317 1979.38631,614.491323 L2169.42465,899.267915 C2171.76446,902.772803 2169.25209,907.468993 2165.03767,907.468993 L997.600931,907.468993 C993.386508,907.468993 990.874143,902.772803 993.213955,899.267915 L1576.93301,24.5534701 C1579.02021,21.4254375 1583.61839,21.4254375 1585.70559,24.5534701 L1848.00065,417.60748 C1850.33908,421.112367 1847.8281,425.808557 1843.61506,425.808557 L1643.26774,425.808557 C1641.50494,425.808557 1639.85948,424.927849 1638.88076,423.461843 L1585.70559,343.777074 C1583.61839,340.649041 1579.02021,340.649041 1576.93163,343.777074 L1324.48725,722.073008 C1322.14882,725.577896 1324.66118,730.274086 1328.87422,730.274086 L1833.76438,730.274086 C1837.9788,730.274086 1840.49116,725.577896 1838.15135,722.073008 L1770.26642,620.345686 C1767.92798,616.840799 1770.43897,612.144608 1774.65339,612.144608 L1974.99933,612.144608 Z M2866.58624,1071.42553 C2865.29279,1071.12046 2864.16084,1070.33914 2863.41956,1069.23618 L2256.82555,168.012144 C2254.14753,164.032392 2257.74077,158.835109 2262.40797,159.933924 L2546.14235,226.695197 C2547.4358,226.998889 2548.56774,227.780207 2549.30903,228.883163 L3155.90304,1130.10858 C3158.57967,1134.08695 3154.98782,1139.28424 3150.31923,1138.1868 L2866.58624,1071.42553 Z M296.052222,1071.42553 L12.3178472,1138.1868 C7.6506457,1139.28424 4.05741134,1134.08695 6.73542696,1130.10858 L613.329433,228.883163 C614.070719,227.780207 615.202663,226.998889 616.496117,226.695197 L900.230492,159.933924 C904.899074,158.835109 908.490928,164.032392 905.812912,168.012144 L299.218906,1069.23618 C298.477621,1070.33914 297.345676,1071.12046 296.052222,1071.42553 Z M949.984571,917.61039 L666.250196,984.371663 C661.582995,985.470477 657.989761,980.271814 660.667776,976.293442 L1267.26178,75.068023 C1268.00307,73.9664475 1269.13501,73.1837491 1270.42847,72.8800566 L1554.16284,6.11878363 C1558.83142,5.01996897 1562.42328,10.2186323 1559.74526,14.197004 L953.151256,915.422423 C952.40997,916.523999 951.278025,917.306697 949.984571,917.61039 Z M754.858003,797.195764 L471.116726,863.958417 C466.449525,865.057232 462.857671,859.86133 465.532925,855.882958 L937.951446,153.295896 C938.694113,152.19294 939.826057,151.410242 941.119511,151.105169 L1224.86217,84.3425156 C1229.52799,83.243701 1233.12122,88.4396035 1230.44597,92.4179751 L758.026068,795.005037 C757.284782,796.107993 756.152837,796.890691 754.858003,797.195764 Z M2407.78005,797.195764 C2406.48659,796.890691 2405.35465,796.107993 2404.61198,795.005037 L1932.19346,92.4179751 C1929.5182,88.4396035 1933.11006,83.243701 1937.77726,84.3425156 L2221.51854,151.105169 C2222.81337,151.410242 2223.94532,152.19294 2224.6866,153.295896 L2697.1065,855.882958 C2699.78038,859.86133 2696.1899,865.057232 2691.52132,863.958417 L2407.78005,797.195764 Z M2212.65403,917.61039 C2211.36058,917.306697 2210.22863,916.523999 2209.48734,915.422423 L1602.89334,14.197004 C1600.21532,10.2186323 1603.80718,5.01996897 1608.47576,6.11878363 L1892.21013,72.8800566 C1893.50359,73.1837491 1894.63553,73.9664475 1895.37682,75.068023 L2501.97082,976.293442 C2504.64884,980.271814 2501.05561,985.470477 2496.3884,984.371663 L2212.65403,917.61039 Z" id="Fill-17" stroke="#FFFFFF" stroke-width="10"></path>
    </g>
</svg>