<?xml version="1.0" encoding="utf-8"?>
<!-- Generator: Adobe Illustrator 23.0.2, SVG Export Plug-In . SVG Version: 6.00 Build 0)  -->
<svg version="1.1"
	 id="svg2" xmlns:cc="http://creativecommons.org/ns#" xmlns:dc="http://purl.org/dc/elements/1.1/" xmlns:inkscape="http://www.inkscape.org/namespaces/inkscape" xmlns:rdf="http://www.w3.org/1999/02/22-rdf-syntax-ns#" xmlns:sodipodi="http://sodipodi.sourceforge.net/DTD/sodipodi-0.dtd" xmlns:svg="http://www.w3.org/2000/svg"
	 xmlns="http://www.w3.org/2000/svg" xmlns:xlink="http://www.w3.org/1999/xlink" x="0px" y="0px" viewBox="0 0 8192 3905.8"
	 style="enable-background:new 0 0 8192 3905.8;" xml:space="preserve">
<style type="text/css">
	.st0{opacity:0.9;fill:#FFFFFF;}
	.st1{fill:#FFFFFF;}
</style>
<g id="g3794" transform="matrix(0.17675119,0,0,0.17675119,26.477926,1437.9258)">
	<path id="path3790" inkscape:connector-curvature="0" sodipodi:nodetypes="cssssccccccsssscccsscc" class="st0" d="M32523.1,5966.6
		v5677.1c0,167.3-156.8,328.7-328.7,328.7h-4737.4c-167.2,0-336.5-92.9-336.5-354.6V5969.4c0-261.2-135-371.5-409.3-371.5h-6225.4
		l185.5-5402.5h6032.5c280.8,0,416.7-125.5,416.7-381.3v-5455.6c0-307.9,132.7-504.1,502.9-504.1h4488.7
		c252.1,0,410.9,154.7,410.9,410.9v5549c0,233.8,64.6,381.1,412.9,381.1h4826.4v5065.9c0,167.2-93.1,336.5-354.8,336.5h-4470.5
		C32627.3,5597.9,32523.1,5746.1,32523.1,5966.6L32523.1,5966.6z"/>
	<path id="path3786" inkscape:connector-curvature="0" sodipodi:nodetypes="ccccccccccccccccccccc" class="st1" d="M10332.5,11972.4
		H6558c-314.6,0-432.7-265.8-536.6-587.1L-95.6-5671.5c-85.8-225.6-110.8-473.2,242.1-473.2h4860.4
		c348.3-1.8,460.6,187.2,579.6,539.2l2707.1,8776c79.2,266.8,225.9,275.2,310.2-10.3l2737.7-8900.2
		c54.5-207.1,209.9-405.4,504-405.4h10224.2c252.1,0,410.9,154.7,410.9,410.9v17378.3c0,167.3-156.8,328.7-328.7,328.7h-4770.2
		c-167.2,0-336.5-92.9-336.5-354.6V-5106.6c0-190.8-166.2-271.1-270.9,0l-5898.4,16528.7
		C10775.7,11696,10646.8,11972.4,10332.5,11972.4z"/>
	<path id="path3788" inkscape:connector-curvature="0" sodipodi:nodetypes="sccccccccccccs" class="st1" d="M45787.2-6145.4
		c252,0,410.9,154.7,410.9,410.9v17378.3c0,167.3-156.8,328.7-328.7,328.7H41132c-167.2,0-336.5-92.9-336.5-354.6V594.6
		c0-241.1-123-399-370.2-399h-2662.9v-3403.1c0-272.3,108.6-397.6,363.1-601.7L40594.9-5682c365.3-269.1,534.9-463.5,887-463.5
		L45787.2-6145.4L45787.2-6145.4z"/>
</g>
</svg>
