<?xml version="1.0" encoding="UTF-8"?>
<svg width="22px" height="22px" viewBox="0 0 22 22" version="1.1" xmlns="http://www.w3.org/2000/svg" xmlns:xlink="http://www.w3.org/1999/xlink">
    <!-- Generator: Sketch 50.2 (55047) - http://www.bohemiancoding.com/sketch -->
    <title>logo-facebook</title>
    <desc>Created with Sketch.</desc>
    <defs></defs>
    <g id="Page-1" stroke="none" stroke-width="1" fill="none" fill-rule="evenodd">
        <g id="logo-facebook" fill="#FFFFFF" fill-rule="nonzero">
            <path d="M20.1666667,0 L1.83333333,0 C0.820416667,0 0,0.820416667 0,1.83333333 L0,20.1666667 C0,21.1795833 0.820416667,22 1.83333333,22 L11.9166667,22 L11.9166667,13.75 L9.16666667,13.75 L9.16666667,10.0833333 L11.9166667,10.0833333 L11.9166667,7.71191667 C11.9166667,4.87025 13.6519167,3.32291667 16.1874167,3.32291667 C17.402,3.32291667 18.4451667,3.41366667 18.7495,3.454 L18.7495,6.424 L16.9913333,6.42491667 C15.6126667,6.42491667 15.3459167,7.08033333 15.3459167,8.041 L15.3459167,10.0833333 L19.4159167,10.0833333 L18.49925,13.75 L15.3459167,13.75 L15.3459167,22 L20.1666667,22 C21.1795833,22 22,21.1795833 22,20.1666667 L22,1.83333333 C22,0.820416667 21.1795833,0 20.1666667,0 Z" id="Shape"></path>
        </g>
    </g>
</svg>