<?xml version="1.0" encoding="UTF-8"?>
<svg width="24px" height="12px" viewBox="0 0 24 12" version="1.1" xmlns="http://www.w3.org/2000/svg" xmlns:xlink="http://www.w3.org/1999/xlink">
    <!-- Generator: Sketch 45.2 (43514) - http://www.bohemiancoding.com/sketch -->
    <title>logo-soundcloud</title>
    <desc>Created with Sketch.</desc>
    <defs></defs>
    <g id="Page-1" stroke="none" stroke-width="1" fill="none" fill-rule="evenodd">
        <path d="M20.94347,5.28224 C22.63157,5.28224 24,6.65121 24,8.33957 C24,10.02793 22.63129,11.39663 20.9432,11.39663 C20.88868,11.39663 12.47761,11.39235 12.46986,11.39155 C12.28731,11.37311 12.14219,11.21729 12.13978,11.0302 L12.13978,1.32821 C12.14192,1.14994 12.20339,1.058 12.43405,0.96873 C13.02767,0.73914 13.69986,0.60337 14.38942,0.60337 C17.20754,0.60337 19.51784,2.76454 19.76106,5.51958 C20.12508,5.36696 20.52465,5.28224 20.94347,5.28224 Z M0.45116,6.30429 L0.72885,8.53628 L0.45089,10.71936 C0.44233,10.77843 0.39984,10.81959 0.34772,10.81959 C0.2948,10.81959 0.25124,10.77736 0.24429,10.71883 L0,8.53628 C0,8.53628 0.24429,6.30482 0.2443,6.30429 C0.25151,6.24629 0.29508,6.20406 0.34773,6.20406 C0.40011,6.20406 0.44261,6.24496 0.45116,6.30429 Z M4.30095,4.24549 C4.40064,4.24549 4.48323,4.32754 4.48911,4.43178 L4.70907,8.53815 L4.48911,11.19217 L4.48911,11.19137 C4.48323,11.29534 4.40064,11.37739 4.30095,11.37739 C4.20073,11.37739 4.11814,11.2956 4.11306,11.1919 L3.91849,8.53815 L4.11306,4.43178 C4.11787,4.32754 4.20072,4.24549 4.30095,4.24549 Z M2.30843,5.67272 C2.38461,5.67272 2.44741,5.7342 2.45409,5.81571 L2.70319,8.53708 L2.45409,11.16945 C2.44741,11.25097 2.3846,11.31244 2.30843,11.31244 C2.23146,11.31244 2.16838,11.25097 2.1625,11.16945 L1.94334,8.53708 L2.1625,5.81625 C2.16865,5.73419 2.23146,5.67272 2.30843,5.67272 Z M6.32581,11.37712 C6.20072,11.37712 6.09943,11.27663 6.09541,11.1494 L5.92623,8.53922 L6.09541,3.0727 C6.09942,2.9444 6.20072,2.84391 6.32607,2.84391 C6.45035,2.84391 6.55138,2.94414 6.55646,3.07243 L6.74703,8.53949 L6.5562,11.1486 C6.55112,11.27689 6.45009,11.37712 6.32581,11.37712 Z M10.4712,11.38942 C10.30015,11.38942 10.15849,11.24856 10.15582,11.07697 C10.15582,11.07697 10.03688,8.54296 10.03688,8.53895 L10.15582,2.22731 C10.15849,2.05385 10.29988,1.913 10.4712,1.913 C10.64226,1.913 10.78364,2.05412 10.78658,2.22706 L10.91968,8.5411 L10.78658,11.07538 L10.78658,11.07725 L10.78658,11.07538 C10.78337,11.24857 10.64225,11.38942 10.4712,11.38942 Z M8.38273,11.37953 C8.23279,11.37953 8.11279,11.26006 8.10959,11.10931 L7.96526,8.54029 L8.10932,3.03341 C8.11253,2.88106 8.23253,2.76186 8.38247,2.76186 C8.53134,2.76186 8.65134,2.88106 8.65535,3.03341 L8.81759,8.54003 L8.65562,11.10959 L8.65562,11.10772 C8.65161,11.26006 8.5316,11.37953 8.38273,11.37953 Z" id="logo-soundcloud" fill="#FFFFFF" fill-rule="nonzero"></path>
    </g>
</svg>