<svg xmlns="http://www.w3.org/2000/svg" viewBox="0 0 250 200"><defs><style>.cls-1{fill:#fff;}</style></defs><title>icon-composition</title><g id="Layer_2" data-name="Layer 2"><g id="Layer_1-2" data-name="Layer 1"><path class="cls-1" d="M250,69.44c-2.28,2-5.17,1.86-7.92,2.06a2.28,2.28,0,0,1-2.37-1.84,1.88,1.88,0,0,1,1.06-2.44c3-.75,6.07-2.58,9.23-.37Z"/><path class="cls-1" d="M85.43,150.71c-.4-8-.74-15.72-1.18-23.45-.78-14-1.62-28-2.43-42-.74-12.8-1.39-25.61-2.25-38.4-.34-5.08.37-6.71,5.25-8.67q24.25-9.75,48.56-19.4L176.23,1.75l1.2-.49c6.33-2.48,7.52-1.56,7.76,5.18.75,21,1.67,42,2.45,63q1.11,29.57,2,59.15c.14,4.6.57,9.17.21,13.85-1,12.95-12.86,24.34-26,27.38a28.76,28.76,0,0,1-14.16,0c-10.78-2.9-16.35-12.54-13.48-23.26C140.41,131,159.81,119.8,175.49,124a17.31,17.31,0,0,1,7.18,3.61c0-3.76.16-7.27,0-10.76q-1.53-28.41-3.2-56.81c-.34-5.81-.88-11.61-1.07-17.43-.1-2.85-1-2.82-3.29-1.85Q133.37,58.46,91.55,76c-1.75.73-2.45,1.61-2.33,3.58,1.17,19.91,2.21,39.82,3.35,59.73.53,9.24.85,18.47,2.1,27.69.81,6-1.9,11.66-5.53,16.53-7.73,10.41-18,16.4-31.2,16.52-17.18.15-26.56-13.82-20-29.59C44.54,154.32,65,144.13,81,149,82.4,149.44,83.76,150.07,85.43,150.71Z"/><path class="cls-1" d="M100.69,87.8c-1.88-.07-4.14.32-4.31-2.3s2.17-2.9,4.08-3.13c15.15-1.81,30.32-3.55,45.47-5.32q12.75-1.48,25.48-3c2-.24,4-.07,4.2,2.32.22,2.16-1.46,2.8-3.4,3q-35,4.11-70,8.27C101.71,87.72,101.17,87.76,100.69,87.8Z"/><path class="cls-1" d="M4.6,129.52c-1.54,0-3.07-.44-3.24-2.32-.17-2,1.29-2.77,3.08-3q16.23-2.43,32.45-4.87,17-2.55,34.08-5l.32-.06c1.91-.34,3.7,0,4.07,2.1s-1.24,3-3.16,3.24L44.25,123.7q-18.81,2.79-37.61,5.54C6,129.34,5.35,129.42,4.6,129.52Z"/><path class="cls-1" d="M3.88,96.69C2,96.88.2,96.55,0,94.33s1.6-2.82,3.45-3q28.91-3,57.81-5.9c3.44-.35,6.91-.47,10.35-.87,1.86-.21,3.43,0,3.73,2s-1.22,2.76-3,3c-12.7,1.35-25.39,2.74-38.08,4.07C24.12,94.66,14,95.66,3.88,96.69Z"/><path class="cls-1" d="M105.32,118.87c-2,0-4.23.2-4.33-2.38s2.28-2.82,4.17-3.07c13.63-1.82,27.26-3.57,40.9-5.34q11.1-1.44,22.21-2.88c1.29-.17,2.6-.49,3.75.41a2.33,2.33,0,0,1,1,2.54c-.45,1.56-1.64,2.11-3.17,2.31q-14,1.8-28,3.67l-35.09,4.59C106.24,118.79,105.7,118.83,105.32,118.87Z"/><path class="cls-1" d="M4.71,65.11c-2.07,0-3.8-.24-4-2.31-.21-2.48,1.8-2.93,3.69-3.14,8.6-.94,17.21-1.83,25.82-2.73l33.57-3.51c.43-.05.86-.13,1.29-.18,2-.21,3.65.35,3.79,2.51.13,2-1.38,2.72-3.2,2.91-5.81.61-11.61,1.26-17.42,1.88L6.33,65Z"/><path class="cls-1" d="M198.1,78c-1.37,0-2.65-.56-2.88-2.24-.28-2,1-2.95,2.85-3.2,6.32-.89,12.66-1.73,19-2.59,2.89-.4,5.78-.84,8.69-1.17,1.74-.19,3.08.61,3.3,2.37a2.58,2.58,0,0,1-2.44,2.93C217.18,75.42,207.74,76.67,198.1,78Z"/><path class="cls-1" d="M197.42,44.38c-1.35,0-2.78-.39-3-2.32s1-2.85,2.65-3c8.72-.94,17.44-1.8,26.17-2.64,1.73-.16,3.05.67,3.2,2.47a2.58,2.58,0,0,1-2.53,2.85C215.17,42.64,206.45,43.48,197.42,44.38Z"/><path class="cls-1" d="M9.77,164.64c-1.66.05-3.06-.48-3.28-2.33s1-2.74,2.68-3q12.5-1.91,25-3.75c1.7-.25,3.11.35,3.44,2.14s-.82,2.88-2.49,3.14C26.67,162.15,18.24,163.38,9.77,164.64Z"/><path class="cls-1" d="M200.8,110c-2.18.07-3.89-.11-4.14-2.21-.22-1.83,1-2.71,2.73-3,8.34-1.23,16.67-2.46,25-3.63a2.67,2.67,0,0,1,3.33,2.31c.23,1.79-1,2.78-2.69,3C216.83,107.7,208.59,108.86,200.8,110Z"/><path class="cls-1" d="M221.81,130.92c1.72-.09,3.08.55,3.29,2.34s-1,2.76-2.68,3q-10.39,1.59-20.79,3.1c-1.68.24-3.1-.27-3.42-2.13s.8-2.87,2.48-3.14C207.72,133,214.76,132,221.81,130.92Z"/><path class="cls-1" d="M109.52,152.13c-2.17-.08-3.79-.48-4-2.5s1.29-2.63,3-2.9c6-.9,12-1.86,18-2.8,1.73-.28,3.09.28,3.56,2a2.42,2.42,0,0,1-2.06,3.14C121.71,150.2,115.4,151.17,109.52,152.13Z"/><path class="cls-1" d="M241.59,38c-1.93,0-3.66-.14-3.76-2.31-.1-1.93,1.35-2.4,3-2.59,1.38-.15,2.74-.56,4.11-.77a2.2,2.2,0,0,1,2.67,1.28,2.39,2.39,0,0,1-1,3.07C245.05,37.75,243.18,37.75,241.59,38Z"/><path class="cls-1" d="M240.2,133.92c-1.94.08-3.42-.07-3.78-1.82-.4-2,1.12-2.61,2.64-3,1-.29,2.13-.36,3.18-.61,1.53-.37,2.89-.29,3.41,1.45s-.47,3-2.06,3.48A18.61,18.61,0,0,1,240.2,133.92Z"/><path class="cls-1" d="M242.8,104.59c-2,0-3.29-.21-3.63-1.77s.58-2.62,2.14-3a35.47,35.47,0,0,1,4.4-.92,2.2,2.2,0,0,1,2.7,1.72,2.31,2.31,0,0,1-1.57,2.81A37.74,37.74,0,0,1,242.8,104.59Z"/></g></g></svg>