<svg xmlns="http://www.w3.org/2000/svg" viewBox="0 0 250 200"><defs><style>.cls-1{fill:#fff;}</style></defs><title>icon-mix</title><g id="Layer_2" data-name="Layer 2"><g id="Layer_1-2" data-name="Layer 1"><rect class="cls-1" y="176.34" width="53.45" height="23.66" rx="2"/><rect class="cls-1" y="141.07" width="53.45" height="23.66" rx="2"/><rect class="cls-1" y="105.8" width="53.45" height="23.66" rx="2"/><path class="cls-1" d="M51,73.74V91H2.47V73.74H51m1.23-3.2h-51A1.45,1.45,0,0,0,0,72.14V92.6a1.45,1.45,0,0,0,1.24,1.6h51a1.45,1.45,0,0,0,1.24-1.6V72.14a1.45,1.45,0,0,0-1.24-1.6Z"/><rect class="cls-1" x="65.52" y="176.34" width="53.45" height="23.66" rx="2"/><rect class="cls-1" x="65.52" y="141.07" width="53.45" height="23.66" rx="2"/><rect class="cls-1" x="65.52" y="105.8" width="53.45" height="23.66" rx="2"/><rect class="cls-1" x="65.52" y="70.54" width="53.45" height="23.66" rx="2"/><rect class="cls-1" x="65.52" y="35.27" width="53.45" height="23.66" rx="2"/><path class="cls-1" d="M116.49,3.2V20.46H68V3.2h48.5M117.73,0h-51a1.45,1.45,0,0,0-1.23,1.6V22.06a1.45,1.45,0,0,0,1.23,1.6h51a1.46,1.46,0,0,0,1.24-1.6V1.6A1.46,1.46,0,0,0,117.73,0Z"/><rect class="cls-1" x="131.03" y="176.34" width="53.45" height="23.66" rx="2"/><rect class="cls-1" x="131.03" y="141.07" width="53.45" height="23.66" rx="2"/><rect class="cls-1" x="131.03" y="105.8" width="53.45" height="23.66" rx="2"/><rect class="cls-1" x="196.55" y="176.34" width="53.45" height="23.66" rx="2"/><rect class="cls-1" x="196.55" y="141.07" width="53.45" height="23.66" rx="2"/><rect class="cls-1" x="196.55" y="105.8" width="53.45" height="23.66" rx="2"/><rect class="cls-1" x="196.55" y="70.54" width="53.45" height="23.66" rx="2"/><path class="cls-1" d="M247.53,38.47V55.73H199V38.47h48.51m1.23-3.2h-51a1.45,1.45,0,0,0-1.24,1.6V57.33a1.45,1.45,0,0,0,1.24,1.6h51a1.45,1.45,0,0,0,1.24-1.6V36.87a1.45,1.45,0,0,0-1.24-1.6Z"/></g></g></svg>