<svg xmlns="http://www.w3.org/2000/svg" viewBox="0 0 250 200"><defs><style>.cls-1{fill:#fff;}</style></defs><title>icon-sound-design</title><g id="Layer_2" data-name="Layer 2"><g id="Layer_1-2" data-name="Layer 1"><path class="cls-1" d="M118.25,148.07c.28-2.88.59-5.76.82-8.64q2.1-27.21,4.18-54.44,1.62-21.13,3.3-42.29l1.23-15.83a5.14,5.14,0,0,1,.09-.87c.28-1.09.58-2.23,2.47-2.23A2.12,2.12,0,0,1,132.75,26c.2,2.82.29,5.64.41,8.47q1.41,35.09,2.81,70.18c.63,16,1.17,32,1.78,48,0,.74-.34,1.55.55,2.49.82-7.49,1.61-14.74,2.4-22L144,103.09c.42-3.9.88-7.79,1.22-11.69.12-1.33.26-2.66,2.36-2.72,2.31-.07,2.48,1.38,2.69,2.74,1.31,8.85,2.66,17.69,4.53,26.63,1-2.86,2.07-5.72,3.08-8.58q1.91-5.35,3.76-10.7c.36-1,.74-2,2.3-2.25s2.53.73,3.47,1.55a4.22,4.22,0,0,1,1.18,2.63,10.57,10.57,0,0,0,1.22,3.37q1.38-7.71,2.74-15.42c.81-4.67,1.58-9.34,2.4-14,.2-1.18.57-2.44,2.51-2.48,2.21,0,2.48,1.36,2.58,2.6.71,9,1.36,17.93,2,26.9q.9,12,1.82,24.07a1.93,1.93,0,0,0,.62,1.28l5.73-24.22c.18-.78.39-1.57.59-2.35a2.54,2.54,0,0,1,4.85.11,27.55,27.55,0,0,0,1.86,6.38c1.21-2.85,2.4-5.71,3.64-8.56.5-1.14.81-2.52,3-2.45,1.94,0,2.3,1.26,2.83,2.36,1.2,2.49,2.43,5,3.87,7.93l3-4.89a2.78,2.78,0,0,1,2.85-1.45A2.47,2.47,0,0,1,219,101.6l2.19,5.19c1.09-1.42,1.32-2.89,3.07-3.62,1.29-.53,2.5-.83,3.58.12s.58,1.7-.32,2.52c-2.06,1.9-2.3,4.39-3.47,6.58-.62,1.15-1,2.49-3.08,2.41s-2.21-1.4-2.68-2.48c-.7-1.64-1.34-3.3-2.25-5.55l-2.76,4.44a2.89,2.89,0,0,1-2.74,1.6A2.62,2.62,0,0,1,208,111c-1.19-2.41-2.33-4.83-3.77-7.83-1.74,4.1-3.22,7.6-4.71,11.09a24.23,24.23,0,0,1-1.06,2.25,2.43,2.43,0,0,1-2.54,1,2.17,2.17,0,0,1-2-1.38c-.52-1.08-.1-2.33-1.17-3.57-1.75,7.38-3.45,14.57-5.16,21.75-.7,2.92-1.43,5.84-2.09,8.77a2.32,2.32,0,0,1-2.61,2.12c-2-.05-2.32-1.18-2.42-2.45q-1.69-23-3.45-46a5.73,5.73,0,0,0-.72-2.37c-1.3,7.4-2.62,14.79-3.89,22.19-.21,1.28-.39,2.61-2.48,2.7s-2.48-1.23-2.75-2.5a96.5,96.5,0,0,0-2.91-11.41c-.95,2.64-1.92,5.28-2.85,7.92-1.75,5-3.47,9.93-5.21,14.9-.41,1.17-.93,2.33-2.89,2.24s-2.22-1.29-2.4-2.51c-.83-5.68-1.7-11.35-3.07-17-.54,4.82-1.09,9.63-1.61,14.45q-1.62,14.94-3.19,29.88-1.55,14.5-3.08,29c-.18,1.73-.37,3.46-.51,5.19a2.29,2.29,0,0,1-2.67,2.3,2.13,2.13,0,0,1-2.34-2.29c-.18-4.71-.39-9.41-.56-14.12-.4-11.52-.73-23-1.19-34.55-.66-16.51-1.43-33-2.12-49.53-.29-7-.47-13.91-.72-20.86,0-.61.29-1.28-.51-2-.44,5.28-.89,10.36-1.3,15.45q-1.38,17.13-2.72,34.27c-.7,8.89-1.32,17.78-2,26.68q-1.69,21.9-3.45,43.81c-.12,1.48.38,3.66-2.71,3.57-2.84-.09-2.31-2.19-2.37-3.59-.52-12.75-.91-25.5-1.4-38.24q-1.11-29-2.32-58c-.06-1.44-.35-2.88-.58-4.71-1.39,12.66-2.72,24.93-4.07,37.2-.13,1.22-.54,2.43-2.44,2.52s-2.45-1.13-2.82-2.29a71.28,71.28,0,0,0-3.82-10.18L95,123.76c-.34,1.27-.44,2.81-2.72,2.84s-2.43-1.49-2.74-2.77c-1.24-5.19-2.5-10.38-4.21-15.57q-2.25,8.74-4.49,17.51c-.49,1.92-.92,3.85-1.42,5.77-.33,1.25-.8,2.57-2.92,2.41s-2.21-1.53-2.21-2.81q0-10.53,0-21.07l-1,0c-.52,4.43-1.06,8.86-1.57,13.29Q70,138.7,68.28,154.07c-.14,1.27-.71,2.34-2.71,2.22-1.84-.11-2.11-1.17-2.21-2.35q-1.89-23.2-3.83-46.4c-.17-2,.09-4.06-.85-6.19-1.14,11.44-2.27,22.73-3.39,34,0,.36-.06.73-.13,1.09a2.18,2.18,0,0,1-2.48,1.95,2.11,2.11,0,0,1-2.41-2c-.37-3.46-.71-6.93-1.08-10.39-.48-4.4-1-8.79-1.88-13.19-.24,1.87-.42,3.73-.74,5.59-.19,1.15-.44,2.44-2.45,2.51s-2.44-1.22-2.56-2.37c-.54-5.35-1-10.69-1.45-16-.12-1.46.4-2.71,2.8-2.49,1.41.14,1.29-.55,1.37-1.17q.53-3.67,1-7.35a2.2,2.2,0,0,1,2.44-2.23c1.95,0,2.41,1.06,2.54,2.37.69,6.78,1.45,13.56,2.22,20.73,1.05-2.94.92-5.61,1.2-8.22,1.1-10,2-19.93,3-29.89.13-1.32.58-2.6,2.7-2.51,1.89.09,2.26,1.3,2.35,2.55.53,7.31,1,14.61,1.63,21.91.88,10.62,1.82,21.24,3.13,31.89.5-4.14,1-8.29,1.5-12.43q1.94-16.55,3.83-33.11c.31-2.66.56-5.34.83-8,.14-1.36.39-2.85,2.67-2.76s2.35,1.63,2.39,3c.32,12.88.61,25.77,1.43,38.72l3.18-12.21c.31-1.2.63-2.41.93-3.62a2.32,2.32,0,0,1,2.54-2,2.36,2.36,0,0,1,2.47,2q1.68,7.07,3.35,14.12a5.3,5.3,0,0,0,1,2.28l2.1-8c.3-1.18.64-2.39,2.63-2.4s2.35,1.22,2.72,2.37a46.57,46.57,0,0,0,2.76,7.16c.3-2.16.64-4.31.87-6.47q2.72-24.9,5.41-49.8a17.48,17.48,0,0,1,.39-2.37A2.15,2.15,0,0,1,111.85,53a2.18,2.18,0,0,1,2.28,1.65,5.05,5.05,0,0,1,.14,1.29c.43,10.87.83,21.73,1.28,32.59q1.07,26.3,2.17,52.58c.09,2.32,0,4.64,0,7Z"/><path class="cls-1" d="M55.74,0A3.55,3.55,0,0,1,58.4,1.54Q74.23,22.87,90.07,44.21c.88,1.19,1.62,2.53-.51,3.35-2,.76-2.92-.43-3.74-1.54Q70,24.81,54.22,3.57C53.62,2.75,53,1.91,53.7.93A2.51,2.51,0,0,1,55.74,0Z"/><path class="cls-1" d="M197.7,14.22a12.23,12.23,0,0,1-1,1.7q-13.26,16.7-26.57,33.37a8.44,8.44,0,0,1-.79.91,2.82,2.82,0,0,1-3,.58,1.54,1.54,0,0,1-1-2.26,5.39,5.39,0,0,1,.91-1.34Q179.39,30.58,192.61,14a5.21,5.21,0,0,1,1.62-1.47A2.29,2.29,0,0,1,197.7,14.22Z"/><path class="cls-1" d="M89.59,166.82a3.36,3.36,0,0,1-1.41,2.08l-29,25.6a16,16,0,0,1-2,1.56,2.61,2.61,0,0,1-3.08-.07,1.37,1.37,0,0,1-.32-2.18,17.49,17.49,0,0,1,1.73-1.71q14.53-12.91,29.06-25.84a3.76,3.76,0,0,1,3.44-1.09A1.77,1.77,0,0,1,89.59,166.82Z"/><path class="cls-1" d="M208.26,80.81c-1-.09-1.87-.37-2.13-1.19-.37-1.13.29-1.91,1.53-2.55,4.7-2.43,9.37-4.9,14.05-7.36l22.92-12a14.52,14.52,0,0,1,2.2-1,2.46,2.46,0,0,1,2.73.65,1.34,1.34,0,0,1-.28,2.17A14.87,14.87,0,0,1,247,60.85L210.82,79.94A6.59,6.59,0,0,1,208.26,80.81Z"/><path class="cls-1" d="M244.31,164.39c-.33,1.21-1.28,1.89-3,1.59a9.3,9.3,0,0,1-2.26-.88L202.29,148c-.24-.12-.5-.21-.72-.34-1.21-.72-2.14-1.57-1.15-2.75s2.45-1,3.76-.42c2.45,1.08,4.82,2.29,7.23,3.42L241.63,162C242.83,162.56,244.14,163.06,244.31,164.39Z"/><path class="cls-1" d="M173.1,168.24c0-1.14.34-1.82,1.37-2.1a2.75,2.75,0,0,1,3,.75c.94,1.17,1.71,2.41,2.55,3.62q8.81,12.65,17.59,25.29a10.88,10.88,0,0,1,1.09,1.76c.44.94,0,1.72-1.12,2.21a2.54,2.54,0,0,1-2.79-.47,6.68,6.68,0,0,1-1.06-1.27L174,169.69C173.56,169.12,173.08,168.57,173.1,168.24Z"/><path class="cls-1" d="M41.64,147.4c-.08,1.34-1.5,1.74-2.76,2.2Q24.53,154.84,10.17,160c-2.05.75-4.09,1.5-6.15,2.23-1.43.5-2.86.58-3.7-.63s.14-2.11,1.53-2.62q18.06-6.58,36.15-13.1C40.05,145.18,41.7,146,41.64,147.4Z"/><path class="cls-1" d="M13.76,35.67a4.58,4.58,0,0,1,2.23.95l27.38,19.2c1.34.93,2.53,2.1,1,3.33s-3.14.38-4.45-.55Q26.42,49,13,39.37c-1-.7-2-1.41-1.38-2.6A2.32,2.32,0,0,1,13.76,35.67Z"/></g></g></svg>