<svg xmlns="http://www.w3.org/2000/svg" viewBox="0 0 48 48"><g class="nc-icon-wrapper" fill="#ffffff"><path data-color="color-2" d="M23,3V9a1,1,0,0,0,2,0V3a1,1,0,0,0-2,0Z"/><path data-color="color-2" d="M25,45V20h5a1,1,0,0,0,1-1V13a1,1,0,0,0-1-1H18a1,1,0,0,0-1,1v6a1,1,0,0,0,1,1h5V45a1,1,0,0,0,2,0Z"/><path d="M10,45V39a1,1,0,0,0-2,0v6a1,1,0,0,0,2,0Z" fill="#ffffff"/><path d="M16,35V29a1,1,0,0,0-1-1H10V3A1,1,0,0,0,8,3V28H3a1,1,0,0,0-1,1v6a1,1,0,0,0,1,1H15A1,1,0,0,0,16,35Z" fill="#ffffff"/><path d="M38,39v6a1,1,0,0,0,2,0V39a1,1,0,0,0-2,0Z" fill="#ffffff"/><path d="M38,3V28H33a1,1,0,0,0-1,1v6a1,1,0,0,0,1,1H45a1,1,0,0,0,1-1V29a1,1,0,0,0-1-1H40V3a1,1,0,0,0-2,0Z" fill="#ffffff"/></g></svg>