<svg xmlns="http://www.w3.org/2000/svg" viewBox="0 0 48 48"><g class="nc-icon-wrapper" fill="#ffffff"><path d="M21,4a1,1,0,0,0-1,1V41a1,1,0,0,0,2,0V5A1,1,0,0,0,21,4Z" data-color="color-2"/><path d="M15,13a1,1,0,0,0-1,1V34a1,1,0,0,0,2,0V14A1,1,0,0,0,15,13Z" fill="#ffffff"/><path d="M9,19a1,1,0,0,0-1,1v8a1,1,0,0,0,2,0V20A1,1,0,0,0,9,19Z" data-color="color-2"/><path d="M3,21a1,1,0,0,0-1,1v4a1,1,0,0,0,2,0V22A1,1,0,0,0,3,21Z" fill="#ffffff"/><path d="M27,6a1,1,0,0,0-1,1V43a1,1,0,0,0,2,0V7A1,1,0,0,0,27,6Z" fill="#ffffff"/><path d="M33,13a1,1,0,0,0-1,1V34a1,1,0,0,0,2,0V14A1,1,0,0,0,33,13Z" data-color="color-2"/><path d="M39,19a1,1,0,0,0-1,1v8a1,1,0,0,0,2,0V20A1,1,0,0,0,39,19Z" fill="#ffffff"/><path d="M45,21a1,1,0,0,0-1,1v4a1,1,0,0,0,2,0V22A1,1,0,0,0,45,21Z" data-color="color-2"/></g></svg>