<?xml version="1.0" encoding="utf-8"?>
<!-- Generator: Adobe Illustrator 24.1.2, SVG Export Plug-In . SVG Version: 6.00 Build 0)  -->
<svg version="1.1" id="Layer_1" xmlns="http://www.w3.org/2000/svg" xmlns:xlink="http://www.w3.org/1999/xlink" x="0px" y="0px"
	 viewBox="0 0 218.9 218.9" style="enable-background:new 0 0 218.9 218.9;" xml:space="preserve">
<style type="text/css">
	.st0{opacity:0.98;fill:none;stroke:#FFFFFF;stroke-width:7;stroke-linecap:round;stroke-miterlimit:10;}
</style>
<g>
	<circle class="st0" cx="109.5" cy="143" r="44.1"/>
	<path class="st0" d="M44.9,116.8c3.4-8.4,8.5-16.3,15.3-23.1s14.7-11.9,23.1-15.3"/>
	<path class="st0" d="M135.7,78.4c8.4,3.4,16.3,8.5,23.1,15.3s11.9,14.7,15.3,23.1"/>
	<path class="st0" d="M26.7,109.4C31,98.6,37.6,88.5,46.3,79.8s18.8-15.3,29.6-19.6"/>
	<path class="st0" d="M143.1,60.1c10.8,4.4,20.8,10.9,29.6,19.6c8.7,8.7,15.3,18.8,19.6,29.6"/>
	<path class="st0" d="M8.6,102c5.3-13.1,13.3-25.4,23.9-36s22.9-18.6,36-23.9"/>
	<path class="st0" d="M150.5,42.1c13.1,5.3,25.4,13.3,36,23.9s18.6,22.9,23.9,36"/>
</g>
</svg>
