<?xml version="1.0" encoding="UTF-8"?>
<svg width="22px" height="22px" viewBox="0 0 22 22" version="1.1" xmlns="http://www.w3.org/2000/svg" xmlns:xlink="http://www.w3.org/1999/xlink">
    <!-- Generator: Sketch 48.2 (47327) - http://www.bohemiancoding.com/sketch -->
    <title>logo-spotify</title>
    <desc>Created with Sketch.</desc>
    <defs></defs>
    <g id="Page-1" stroke="none" stroke-width="1" fill="none" fill-rule="evenodd">
        <g id="logo-spotify" fill="#FFFFFF" fill-rule="nonzero">
            <path d="M9.29267568,13.1742434 C8.71178547,13.2139063 8.12669256,13.2233623 7.55079304,13.3001927 C6.73547166,13.4090686 5.92579764,13.5615473 5.11612362,13.7091667 C4.88615781,13.7511936 4.72593035,13.9115524 4.64699862,14.1349515 C4.55729751,14.3892141 4.60392107,14.6258779 4.7845053,14.8241923 C4.98019294,15.0389233 5.22762617,15.0805562 5.50579155,15.0181726 C7.1275036,14.6545087 8.76405639,14.4732678 10.4281893,14.6135325 C12.0906149,14.7536659 13.6503373,15.2129409 15.0839791,16.0783005 C15.4337215,16.2894855 15.8429582,16.1925611 16.0440305,15.8592354 C16.2462849,15.5242024 16.1426624,15.1183804 15.7839892,14.91061 C15.4484309,14.7162357 15.1085386,14.5265894 14.7587962,14.3594013 C13.0313602,13.5343612 11.1980691,13.1985402 9.29267568,13.1742434 M8.96972541,9.60340367 C8.67855797,9.61890108 8.19629958,9.63886385 7.71496052,9.67287935 C7.43272378,9.69271078 7.1479917,9.71503756 6.87140233,9.77111717 C6.16850284,9.91400855 5.46626002,10.06281 4.77045257,10.2363021 C4.34887048,10.3415007 4.08935452,10.7634768 4.15370817,11.1580041 C4.24288395,11.7065861 4.73157771,12.0023502 5.2745124,11.8670762 C5.86893002,11.7189315 6.46584298,11.5684228 7.07024198,11.4755696 C8.4371661,11.2658293 9.80973758,11.2792253 11.1802077,11.4641436 C12.9605712,11.7043534 14.6511023,12.2120906 16.2012373,13.1424606 C16.6316188,13.4007945 17.1431647,13.2748452 17.3941439,12.8589105 C17.6388191,12.4536138 17.5101118,11.9352386 17.082751,11.6858353 C16.7026705,11.4640122 16.3178619,11.2469172 15.9197886,11.0601602 C13.779964,10.0559806 11.5140587,9.62848847 8.96972541,9.60340367 M9.03394773,5.8152062 C8.61656833,5.84291767 7.80912699,5.87942852 7.00523166,5.95455156 C6.02718747,6.04609135 5.06332736,6.22943359 4.12323869,6.51994437 C3.58463801,6.68647586 3.28953055,7.251212 3.44621199,7.78521598 C3.60499478,8.32618067 4.16368956,8.63284552 4.71358495,8.48168011 C4.92069865,8.42468116 5.12702434,8.36387352 5.33597671,8.31462328 C6.95650675,7.93244138 8.60120225,7.82698019 10.2599505,7.89343519 C11.3311105,7.93625006 12.3930771,8.05799667 13.4442743,8.27272773 C14.8868468,8.56730986 16.2680863,9.02619081 17.5488553,9.76757116 C17.9075285,9.97507885 18.279729,9.94211402 18.618702,9.70571285 C19.227829,9.28097874 19.2002489,8.38646297 18.5651177,7.99679503 C17.8922937,7.58414365 17.1754728,7.26079938 16.4350118,6.99051404 C14.1713392,6.16402927 11.8228249,5.84331167 9.03394773,5.8152062 M10.9960775,0 C17.1004811,0 22.0261622,4.92922714 21.9998954,11.0596349 C21.973366,17.265297 16.866838,22.100883 10.8161499,22.0018572 C4.93947941,21.9055894 0.00736292273,17.1285784 8.21955066e-06,11.006182 C-0.00734648363,4.92673179 4.92188065,0 10.9960775,0"></path>
        </g>
    </g>
</svg>