<?xml version="1.0" encoding="UTF-8"?>
<svg width="57px" height="57px" viewBox="0 0 57 57" version="1.1" xmlns="http://www.w3.org/2000/svg" xmlns:xlink="http://www.w3.org/1999/xlink">
    <!-- Generator: Sketch 45.2 (43514) - http://www.bohemiancoding.com/sketch -->
    <title>logo-rtl</title>
    <desc>Created with Sketch.</desc>
    <defs>
        <linearGradient x1="85.3873353%" y1="14.6126647%" x2="14.6127426%" y2="85.3872574%" id="linearGradient-1">
            <stop stop-color="#70C5A2" offset="0%"></stop>
            <stop stop-color="#4F2367" offset="100%"></stop>
        </linearGradient>
    </defs>
    <g id="Page-1" stroke="none" stroke-width="1" fill="none" fill-rule="evenodd">
        <g id="logo" fill-rule="nonzero" fill="url(#linearGradient-1)">
            <path d="M28.4,56.8 C44.0848869,56.8 56.8,44.0848869 56.8,28.4 C56.8,12.7151131 44.0848869,9.60422327e-16 28.4,0 C12.7151131,-9.60422327e-16 2.0907958e-15,12.7151131 1.69948691e-16,28.4 C-0.0133031532,35.9362187 2.97455894,43.1676018 8.30347858,48.4965214 C13.6323982,53.8254411 20.8637813,56.8133032 28.4,56.8 Z M6,28.5 C5.96256058,18.4674038 12.5977206,9.6323558 22.2430517,6.87156295 C31.8883827,4.1107701 42.1933945,8.0970156 47.47,16.63 C48.2696046,18.906657 47.5814203,21.4406072 45.74,23 C43.2,25.54 39.96,25.23 35.09,20.36 L30.22,15.49 C25.35,10.82 18.45,12.14 15.11,20.05 C15.11,20.15 15.21,20.25 15.21,20.15 C18.96,18.63 22.41,19.74 26.87,24.21 L32.35,29.69 C37.35,34.25 44.22,34.36 48.68,29.89 C49.29,29.28 49.8,28.67 50.3,28.06 C50.4624828,28.1444399 50.6334315,28.2114786 50.81,28.26 C50.8728872,38.3066051 44.2416843,47.1673001 34.5850537,49.939973 C24.9284231,52.7126458 14.6065778,48.7196173 9.33,40.17 C8.21,38.24 9.23,35.5 11.05,33.78 C13.59,31.24 16.83,31.55 21.7,36.42 L26.57,41.29 C31.44,46.16 38.57,44.74 41.78,36.62 C37.93,38.24 34.48,37.23 29.91,32.62 L24.43,27.14 C19.43,22.58 12.56,22.47 8.1,26.94 C7.51,27.59 7,28.2 6.49,28.81 C6.36747595,28.6530609 6.19429375,28.5434967 6,28.5 Z" id="logo-rtl"></path>
        </g>
    </g>
</svg>