<?xml version="1.0" encoding="UTF-8"?>
<svg width="24px" height="14px" viewBox="0 0 24 14" version="1.1" xmlns="http://www.w3.org/2000/svg" xmlns:xlink="http://www.w3.org/1999/xlink">
    <!-- Generator: Sketch 46.1 (44463) - http://www.bohemiancoding.com/sketch -->
    <title>Fill 1</title>
    <desc>Created with Sketch.</desc>
    <defs></defs>
    <g id="Page-1" stroke="none" stroke-width="1" fill="none" fill-rule="evenodd">
        <path d="M15.2252258,11.1860255 L4.21990559,11.1860255 C3.00510638,11.1860255 1.53786139,9.9811693 1.53786139,8.48497532 C1.53786139,6.99558066 2.74103818,5.78392518 4.21990559,5.78392518 C4.86486441,5.78392518 5.48811665,6.01777004 5.97480546,6.44234004 C6.29578934,6.72231697 6.7815381,6.68737365 7.05970704,6.36401879 C7.33787597,6.04066394 7.30300871,5.55145739 6.98193938,5.27130833 C6.50020718,4.85112776 5.93361424,4.54980613 5.32719741,4.38378231 C6.07504883,2.68515803 7.76551264,1.54881144 9.65364304,1.54881144 C12.2626198,1.54881144 14.3850787,3.68646502 14.3850787,6.31392762 C14.3850787,6.65535661 14.2920139,7.17623592 14.123147,7.78051445 C14.0081192,8.19226043 14.2462079,8.62010099 14.655129,8.73594757 C14.7248636,8.75574305 14.7949399,8.76521046 14.8639053,8.76521046 C15.199759,8.76512439 15.5083514,8.54186581 15.6038945,8.20026469 C15.6769619,7.93879222 15.7571224,7.61965467 15.8187383,7.28898409 C16.6216253,7.54357117 17.205481,8.30018882 17.205481,9.19167394 C17.205481,10.2913559 16.317135,11.1860255 15.2252258,11.1860255 M15.8941986,5.71317785 C17.5153552,6.02887272 18.7437424,7.46817621 18.7437424,9.19167394 C18.7437424,11.1455738 17.1653153,12.7352369 15.2252258,12.7352369 L4.21990559,12.7352369 C3.21866834,12.7352369 2.17444523,12.2868263 1.35489375,11.5049909 C0.480990357,10.6712569 -0.0004,9.59868621 -0.0004,8.48497532 C-0.0004,6.31074313 1.62938794,4.51374393 3.7229617,4.26518156 C4.58404624,1.73506108 6.96800956,-0.0004 9.65364304,-0.0004 C12.9095442,-0.0004 15.5927848,2.51233489 15.8941986,5.71317785 Z M19.5908971,12.8829972 C19.4353618,12.8829972 19.2787155,12.8329921 19.1462541,12.7295392 C18.8292013,12.4819236 18.7715165,12.0224103 19.017382,11.7031006 C20.7104095,9.50433923 19.7438686,7.58985817 19.0170401,6.64432278 C18.7714311,6.32484096 18.8295432,5.86532763 19.1467668,5.6179702 C19.4639051,5.37061278 19.9202559,5.42913854 20.1657796,5.74862037 C21.8159067,7.89522495 21.8157358,10.4564157 20.1654377,12.5997498 C20.0222939,12.7856551 19.8077065,12.8829972 19.5908971,12.8829972 Z M21.9535299,13.9996 C21.814659,13.9996 21.6741645,13.9594926 21.5500781,13.8759213 C21.2167881,13.6511135 21.127398,13.1967642 21.3505314,12.8610157 C23.5081994,9.61472916 22.2794703,6.85162449 21.3550607,5.49356853 C21.1282526,5.16031593 21.2126006,4.70493384 21.5434123,4.47651122 C21.8744803,4.24817466 22.3264728,4.33312309 22.5533663,4.66628962 C24.4801242,7.49678498 24.4817479,10.7803386 22.5578102,13.6749541 C22.417743,13.8856469 22.1877729,13.9996 21.9535299,13.9996 Z" id="Fill-1" fill="#FFFFFF"></path>
    </g>
</svg>