<?xml version="1.0" encoding="utf-8"?>
<!-- Generator: Adobe Illustrator 23.0.4, SVG Export Plug-In . SVG Version: 6.00 Build 0)  -->
<svg version="1.1" id="Layer_1" xmlns="http://www.w3.org/2000/svg" xmlns:xlink="http://www.w3.org/1999/xlink" x="0px" y="0px"
	 viewBox="0 0 2282.6 1062.2" style="enable-background:new 0 0 2282.6 1062.2;" xml:space="preserve">
<style type="text/css">
	.st0{fill:#FFFFFF;}
	.st1{fill:#35EEC6;}
</style>
<g>
	<g>
		<g>
			<path class="st0" d="M210.2,771.8L4.7,820.2c-3.4,0.8-6-3-4-5.9l439.4-652.9c0.5-0.8,1.4-1.4,2.3-1.6l205.5-48.4
				c3.4-0.8,6,3,4,5.9L212.5,770.2C212,771,211.2,771.6,210.2,771.8z"/>
		</g>
		<g>
			<path class="st0" d="M684,660.4l-205.5,48.4c-3.4,0.8-6-3-4-5.9L913.8,50.1c0.5-0.8,1.4-1.4,2.3-1.6l205.5-48.4
				c3.4-0.8,6,3,4,5.9L686.3,658.8C685.7,659.6,684.9,660.2,684,660.4z"/>
		</g>
		<g>
			<path class="st0" d="M542.6,573.2l-205.5,48.4c-3.4,0.8-6-3-4-5.9l342.2-509c0.5-0.8,1.4-1.4,2.3-1.6l205.5-48.4
				c3.4-0.8,6,3,4,5.9l-342.2,509C544.4,572.4,543.6,573,542.6,573.2z"/>
		</g>
		<g>
			<path class="st0" d="M542.6,573.2l-205.5,48.4c-3.4,0.8-6-3-4-5.9l342.2-509c0.5-0.8,1.4-1.4,2.3-1.6l205.5-48.4
				c3.4-0.8,6,3,4,5.9l-342.2,509C544.4,572.4,543.6,573,542.6,573.2z"/>
		</g>
	</g>
	<g>
		<g>
			<path class="st0" d="M2072.4,771.8l205.5,48.4c3.4,0.8,6-3,4-5.9l-439.4-652.9c-0.5-0.8-1.4-1.4-2.3-1.6l-205.5-48.4
				c-3.4-0.8-6,3-4,5.9l439.4,652.9C2070.6,771,2071.5,771.6,2072.4,771.8z"/>
		</g>
		<g>
			<path class="st0" d="M1598.7,660.4l205.5,48.4c3.4,0.8,6-3,4-5.9L1368.8,50.1c-0.5-0.8-1.4-1.4-2.3-1.6L1161,0.1
				c-3.4-0.8-6,3-4,5.9l439.4,652.9C1596.9,659.6,1597.7,660.2,1598.7,660.4z"/>
		</g>
		<g>
			<path class="st0" d="M1740,573.2l205.5,48.4c3.4,0.8,6-3,4-5.9l-342.2-509c-0.5-0.8-1.4-1.4-2.3-1.6l-205.5-48.4
				c-3.4-0.8-6,3-4,5.9l342.2,509C1738.3,572.4,1739.1,573,1740,573.2z"/>
		</g>
	</g>
	<g>
		<path class="st0" d="M718.5,653.1h137.7c51-26.5,96.8-42.8,136.4-48.5c23.7-3.4,44.7-2.3,62.6,3.1c18.8,5.8,33.2,17.2,42.8,33.9
			c1.6,1.7,2.8,3.5,3.6,5.5c0.8,1.9,1.6,3.9,2.1,5.9h218c18.9-28.6,34.1-49.7,46.3-64.1l3.3-4l9.4-5.3l6-0.9
			c7.4-1.1,15.4,0.1,23.8,3.4c7.6,3,14.3,7.1,19.8,12.2c7.7,7.1,11.4,14.6,10.9,22.3c-0.5,7.2-4.7,13.3-11.5,16.7
			c-2.4,1.3-8.3,5.6-20.2,19.7h154.7c3.1,0,4.9-3.4,3.2-5.9l-137.7-206.3c-0.7-1.1-1.9-1.7-3.2-1.7h-145.1c-3.1,0-4.9,3.4-3.2,5.9
			l49.2,73.7c1.7,2.5-0.1,5.9-3.2,5.9H958.4c-3.1,0-4.9-3.4-3.2-5.9l182.9-274c1.5-2.3,4.8-2.3,6.4,0l38.5,57.7
			c0.7,1.1,1.9,1.7,3.2,1.7h145.1c3.1,0,4.9-3.4,3.2-5.9l-190-284.7c-1.5-2.3-4.8-2.3-6.4,0L715.3,647.1
			C713.6,649.7,715.4,653.1,718.5,653.1z"/>
	</g>
</g>
<g>
	<g>
		<path class="st1" d="M1260.4,1040.2c-1,0.7-3,1.5-6.1,2.4c-3.1,0.9-7.1,1.7-12.2,2.4c-14,2-33.3,2.6-57.7,1.6
			c-24.4-0.9-54.9-4.3-91.5-10.2c-12.1-2-34.6-8.8-67.6-20.5c-32.9-11.7-65.3-25.9-97-42.6c-31.8-16.7-54.1-33.7-67-51.1
			c-11.3,7.9-22.5,15.2-33.6,22c-27.4,52-41.8,88.2-43.2,108.7l-0.2,7.2c-0.2,2.8-3.1,2.6-8.7-0.6c-5.6-3.2-11.6-7.5-17.9-13.1
			c-6.4-5.6-10.3-10-11.7-13.3c-0.7-1.4-1-3.5-0.8-6.3c0.6-9,6.9-25.2,18.9-48.7c-7.7,3.1-14.6,5.3-20.7,6.6
			c-2.7,0.6-5.9-0.9-9.5-4.3c-3.6-3.5-7-7.6-10.2-12.5c-6.3-2-11.1-4.7-14.4-7.9c-5.7-5.1-8.4-9.4-8.1-13c0.2-3.5,3.6-7.3,10.1-11.1
			c4.6-2.9,9.1-4.6,13.7-5.3c2.7-0.4,4.9-0.2,6.7,0.4c1.7,0.7,2.5,1.6,2.5,2.7c-0.1,0.9-0.7,1.8-2,2.5c-4.5,2.3-6.9,6.1-7.3,11.3
			c-0.1,0.9,0,2.5,0.3,4.7c2.9,0.1,5.9,0,9.1-0.5c14.2-2,33.4-9.6,57.6-22.7l28.8-47.9c24.6-40.8,43-72.6,55.3-95.2
			c12.3-22.6,18.8-38.9,19.5-48.8l0-4.7c0.1-1.1,0.7-1.8,2-1.9c2.5-0.4,6.2,1,11.1,4c4.9,3,9.3,7.2,13.3,12.5
			c4,5.3,6.3,11.3,6.9,17.9c0.1,2-2.6,7.8-7.9,17.2c-5.3,9.4-14.4,25.2-27.3,47.2l-32,54.8c33-24.3,65.5-51.4,97.7-81.2
			c32.1-29.8,58.5-57.9,79.2-84.1c20.7-26.2,31.5-46.5,32.4-60.6c0.1-1.1,0-2.8-0.3-4.9c-10.7-10.5-30.1-13.7-58.2-9.7
			c-34.4,4.9-75.2,19.2-122.6,42.9c-47.4,23.7-88.5,50.3-123.4,79.8c-34.9,29.5-53.1,54.9-54.5,76.1c-0.2,3.5,0.1,7.1,1.1,10.6
			c0.6,2.7-4.1,2.6-14.1-0.3c-10.1-2.9-20.2-6.9-30.3-12c-10.1-5.1-15.4-9.2-15.8-12.3c-1.2-10.4,18.5-31.8,58.8-64.3
			c40.4-32.5,87.5-63.3,141.4-92.3c53.9-29.1,101.1-46.5,141.8-52.4c21.6-3.1,40.3-2.2,56,2.6c15.8,4.9,27.5,14.5,35.2,28.9
			c1,0.8,1.6,1.4,1.7,2c2.5,5.6,3.5,12.3,3,20.4c-1.2,18.1-10.8,39.7-28.7,64.7c-17.9,25-40.8,50.8-68.8,77.5
			c-28,26.6-58,52.2-90.2,76.8c14.2,20.5,42.6,42.4,85.2,65.8c42.6,23.3,89.3,42.9,140,58.6c50.7,15.7,94.7,23.2,131.9,22.5
			C1261.2,1039.1,1261.4,1039.5,1260.4,1040.2z"/>
		<path class="st1" d="M1191.4,789.9c2.9-0.4,4.2,1.7,3.9,6.4c-0.2,2.8-1.1,5.7-2.6,8.5c-1.5,2.9-3.5,4.9-5.9,6
			c-17.5,7.3-37.6,25.4-60.2,54.4c-22.6,28.9-40.4,53.7-53.5,74.5c-0.6,2.3-3,2.2-7.3-0.2c-4.3-2.4-8.6-5.8-13-10
			c-4.4-4.3-6.7-7.3-7-9.1c-0.2-0.5-0.2-1.6-0.1-3.3c0.5-7.6,4.5-20.6,12-38.9c-26.2,33.9-41.9,56.7-47.3,68.6
			c-1,2.4-2.9,3.7-5.6,4.1c-3.1,0.5-6.9-0.6-11.2-3.1c-4.3-2.5-7.9-5.6-10.7-9.3c-2.9-3.7-4-6.7-3.4-9.2l-0.3-0.2
			c-2.4-1.9-3.3-5.8-2.9-11.8c0.6-9,4.3-20.7,11-35.2c6.7-14.5,16-29.8,28-45.9c12-16,25.7-30.5,41.1-43.4c1.8-1.4,3.6-2.2,5.5-2.4
			c3.6-0.5,7.5,0.4,11.8,2.6c4.3,2.2,8.2,5.1,11.6,8.5c3.4,3.4,5.5,6.2,6.4,8.5c7.3-12.5,13.5-21.2,18.6-26.2c1.1-1.1,2.6-1.8,4.5-2
			c3.3-0.5,7.4,0.2,12,2c4.6,1.8,8.7,4.2,12.1,7.1c3.4,2.9,5.1,5.6,4.9,8c-0.1,1.1-0.3,1.9-0.8,2.3c-13.8,17.5-28.1,41-42.8,70.4
			c17.4-17.5,34.1-33.6,50.1-48.3c16-14.8,28.7-25.4,37.8-31.9C1189.5,790.4,1190.5,790,1191.4,789.9z M1059.2,854.6
			c12.8-15.9,22.6-29.5,29.4-40.8c-9.5,5.6-19.2,13.1-28.9,22.6c-9.8,9.4-18.2,19.6-25.4,30.4c-7.2,10.8-11.9,21-14.2,30.6
			C1033.3,884.7,1046.4,870.5,1059.2,854.6z"/>
		<path class="st1" d="M1382.8,594.5c0,0,2-0.3,6-0.9c4.8-0.7,10.2,0.2,16.2,2.5c6,2.4,11,5.5,15.2,9.3c4.2,3.8,6.2,7.2,6,10.2
			c-0.1,1.9-1.3,3.3-3.4,4.4c-9.3,4.8-23.5,20.2-42.8,46.2c-19.3,26-39.7,56.2-61.3,90.8c-21.5,34.6-39.9,66.3-55.2,95.1
			c17.8-17.1,35.6-33.3,53.4-48.5c17.8-15.2,32-26.2,42.4-32.8c1.3-0.7,2.4-1.2,3.2-1.3c1.3-0.2,2.2,0.2,2.7,1.3
			c0.6,1,0.8,2.5,0.6,4.3c-0.2,3-1.2,6-3,9.2c-1.8,3.1-3.8,5.1-6.2,6c-13.4,4.9-29.2,16.7-47.4,35.3c-18.2,18.7-34.9,38.1-50,58.3
			c-15.2,20.2-23.1,32.1-23.7,35.7l0,0.3c-0.3,1.5-3.4,1.4-9.3-0.3c-5.9-1.7-11.5-4.4-16.7-7.9c-5.3-3.5-7.8-7.1-7.5-10.8
			c0.4-6.5,6.5-21.5,18.3-45c-9.4,9.5-18.8,20.8-28.4,33.9c-9.6,13.1-17.4,24.4-23.5,34c-1.6,2.5-3.8,3.9-6.5,4.3
			c-3.6,0.5-7.5-0.5-11.8-3.2c-4.3-2.6-7.8-5.8-10.4-9.5c-2.7-3.7-3.5-6.8-2.5-9.3c-2-1.6-2.8-4.8-2.5-9.6
			c0.6-8.4,4.7-19.9,12.3-34.6c7.6-14.7,18.1-30.4,31.5-47.1c13.4-16.7,28.5-32.2,45.5-46.4c0.9-0.9,2.1-1.4,3.5-1.6
			c3.6-0.5,7.6,1,12,4.5c4.4,3.5,8.1,7.5,10.9,11.9c2.8,4.4,3.5,7,2,7.8c-11,5.8-22.2,13.8-33.5,24.1c-11.4,10.2-21,21-28.8,32.3
			c-7.8,11.3-12,21.3-12.6,30.1c11.2-9.4,22.7-19.9,34.4-31.5c11.7-11.7,22.2-22.9,31.4-33.9c21.8-39.5,46.1-80.4,72.9-122.7
			c26.8-42.3,47.9-72.5,63.3-90.6C1381.7,595.8,1382.8,594.5,1382.8,594.5z"/>
		<path class="st1" d="M1451.6,752c2.7-0.4,3.9,1.7,3.6,6.4c-0.2,3-1,5.9-2.5,8.8c-1.4,2.9-3.3,4.9-5.7,5.9
			c-13.2,5.6-28.3,18-45.2,37.1c-16.9,19.1-32.5,39.1-47,59.8c-14.5,20.7-21.8,31.6-21.8,32.5c-0.7,0.7-1.1,1-1.3,1
			c-6.6-0.7-13.1-3.3-19.5-7.9c-6.4-4.5-9.9-9.8-10.3-15.8c-0.5-5.3,5-17.5,16.5-36.6c11.5-19.1,24-38,37.6-56.8
			c13.6-18.8,22-28.8,25.2-30.2c1.3-0.6,4.2-0.1,8.6,1.4c4.5,1.5,8.3,3.3,11.5,5.6c3.2,2.2,4.1,4.1,2.7,5.6
			c-15.8,18.3-29.4,39-41,62.1c16.1-16.3,31.9-31.7,47.6-46c15.7-14.4,28.2-24.8,37.6-31.3C1449.5,752.7,1450.5,752.1,1451.6,752z
			 M1405.7,748.9c-4.2,0.6-8.2,0.3-12.1-0.9c-3.9-1.2-5.7-3-5.5-5.4c0.1-1.1,0.5-2.1,1.1-2.9c13.5-21,23.3-39.7,29.7-56.4
			c0.8-2,2.2-3.1,4.3-3.4c2.3-0.3,4.9,0.5,7.8,2.6c2.9,2.1,5.3,5.2,7.5,9.5c2.1,4.2,3.2,9,3.2,14.4c0,3.3-2.1,8.1-6.1,14.2
			c-4.1,6.1-8.6,11.9-13.8,17.4c-5.1,5.4-8.9,8.7-11.2,9.8C1408.8,748.2,1407.2,748.7,1405.7,748.9z"/>
		<path class="st1" d="M1587.7,731.9c2.7-0.4,3.9,1.7,3.6,6.4c-0.2,3-1,5.9-2.5,8.7c-1.4,2.8-3.3,4.7-5.7,5.8
			c-15.6,6.3-36.6,25.5-63.1,57.5c-7.9,11.8-16.4,23.5-25.7,35c-9.3,11.5-17.6,21-25,28.5c-7.4,7.5-12,11.5-13.9,12
			c-4,0.8-8.9,0.9-14.7,0.3c-5.8-0.6-10.3-1.5-13.5-2.9c-4.3-1.4-8.4-3.7-12.4-6.9c-4-3.2-6.5-6.5-7.3-9.9
			c-0.8-3.6-1.1-7.3-0.8-11.2c0.8-11.2,4.5-24.6,11.1-40.3c6.7-15.6,14.7-30.6,24.2-44.9c9.5-14.3,18.5-24.8,27.1-31.6
			c0.4-0.4,1.4-0.8,2.9-1c3.4-0.5,7.8,0.6,13.5,3.3c6.7-6.5,13.9-11.9,21.6-16.1c1.3-0.6,2.4-0.9,3.5-1.1c3.6-0.5,8,0.1,13.3,1.7
			c5.3,1.6,10.1,3.8,14.4,6.4c4.3,2.6,6.8,4.9,7.5,6.8c1.2,3,1.7,6.7,1.4,11.2c-0.4,5.2-1.9,11.5-4.7,19
			c18.6-16.9,32.6-28.6,41.9-35.1C1585.6,732.6,1586.7,732,1587.7,731.9z M1494.6,746.1c5.3,4.6,6.9,8.2,4.9,10.7
			c-17.7,21.6-31,40.9-40.1,58.1c-9.1,17.2-15.7,33.1-20.1,47.8c27.9-28.9,47.7-52.7,59.5-71.3c11.7-18.6,17.9-32.7,18.6-42.4
			c0.3-3.7-0.2-6.5-1.5-8.4c-1.2-1.9-2.7-2.7-4.3-2.4C1506.4,738.9,1500.7,741.5,1494.6,746.1z"/>
	</g>
</g>
</svg>
