<?xml version="1.0" encoding="utf-8"?>
<!-- Generator: Adobe Illustrator 23.0.4, SVG Export Plug-In . SVG Version: 6.00 Build 0)  -->
<svg version="1.1" id="Layer_1" xmlns="http://www.w3.org/2000/svg" xmlns:xlink="http://www.w3.org/1999/xlink" x="0px" y="0px"
	 viewBox="0 0 2279.3 736.8" style="enable-background:new 0 0 2279.3 736.8;" xml:space="preserve">
<style type="text/css">
	.st0{fill:#FFFFFF;}
</style>
<g>
	<g>
		<path class="st0" d="M1075.4,304.8c-3.9-4.9-9.2-8.5-15.8-10.9c-6.7-2.3-12.9-3.5-18.9-3.5c-3.5,0-7.1,0.4-10.7,1.2
			c-3.7,0.8-7.2,2.1-10.4,3.8c-3.3,1.7-5.9,4-8,6.9c-2,2.9-3.1,6.3-3.1,10.4c0,6.6,2.5,11.6,7.4,15c4.9,3.5,11.1,6.4,18.6,8.9
			c7.5,2.5,15.5,4.9,24.1,7.4c8.6,2.5,16.6,5.9,24.1,10.4c7.5,4.5,13.7,10.5,18.6,18.1c4.9,7.6,7.4,17.7,7.4,30.4
			c0,12.1-2.3,22.6-6.8,31.6c-4.5,9-10.6,16.5-18.3,22.4c-7.7,5.9-16.6,10.3-26.7,13.2c-10.1,2.9-20.8,4.3-32.1,4.3
			c-14.1,0-27.2-2.1-39.3-6.4c-12.1-4.3-23.3-11.3-33.8-20.9l34.1-37.4c4.9,6.6,11.1,11.6,18.6,15.2c7.5,3.6,15.2,5.4,23.2,5.4
			c3.9,0,7.8-0.5,11.8-1.4c4-0.9,7.6-2.3,10.7-4.1c3.2-1.8,5.7-4.2,7.7-7.1c1.9-2.9,2.9-6.2,2.9-10.1c0-6.5-2.5-11.7-7.5-15.5
			c-5-3.8-11.3-7-18.9-9.7c-7.6-2.7-15.8-5.3-24.6-8c-8.8-2.7-17-6.2-24.6-10.7c-7.6-4.5-13.9-10.4-18.9-17.8
			c-5-7.4-7.5-17.1-7.5-29.2c0-11.7,2.3-21.9,6.9-30.7c4.6-8.8,10.7-16.2,18.4-22.1c7.7-5.9,16.5-10.4,26.5-13.4
			c10-3,20.4-4.5,31-4.5c12.3,0,24.1,1.7,35.6,5.2c11.5,3.5,21.8,9.3,31,17.5L1075.4,304.8z"/>
		<path class="st0" d="M1153.5,251.7h147.6v44.2h-99.8v40.5h94.2v44.2h-94.2v44.2h105.3V469h-153.2V251.7z"/>
		<path class="st0" d="M1355.7,251.7h47.9v173.1h88.7V469h-136.6V251.7z"/>
		<path class="st0" d="M1526.5,251.7h147.6v44.2h-99.8v40.5h94.2v44.2h-94.2v44.2h105.3V469h-153.2V251.7z"/>
		<path class="st0" d="M1866.9,308.2c-4.7-5.7-10.5-10.1-17.3-13.2c-6.9-3.1-14.8-4.6-23.8-4.6c-9,0-17.3,1.7-25,5.2
			c-7.7,3.5-14.3,8.3-20,14.6c-5.6,6.2-10,13.7-13.2,22.3c-3.2,8.6-4.8,17.9-4.8,27.9c0,10.2,1.6,19.6,4.8,28.1
			c3.2,8.5,7.5,15.9,13,22.1c5.5,6.2,12,11.1,19.5,14.6c7.5,3.5,15.5,5.2,24.1,5.2c9.8,0,18.5-2,26.1-6.1
			c7.6-4.1,13.8-9.8,18.7-17.2l39.9,29.8c-9.2,12.9-20.9,22.4-35,28.5c-14.1,6.1-28.7,9.2-43.6,9.2c-17,0-32.6-2.7-47-8
			c-14.3-5.3-26.7-12.9-37.1-22.9c-10.4-9.9-18.6-21.9-24.4-36.1c-5.8-14.1-8.7-29.9-8.7-47.3c0-17.4,2.9-33.1,8.7-47.3
			c5.8-14.1,14-26.1,24.4-36.1c10.4-9.9,22.8-17.5,37.1-22.9c14.3-5.3,30-8,47-8c6.1,0,12.5,0.6,19.2,1.7c6.6,1.1,13.2,2.9,19.6,5.4
			c6.4,2.5,12.6,5.7,18.6,9.8c5.9,4.1,11.3,9.1,16,15L1866.9,308.2z"/>
		<path class="st0" d="M1992.6,294.1h-62v-42.4h171.9v42.4h-62v175h-47.9V294.1z"/>
		<path class="st0" d="M2246.2,304.8c-3.9-4.9-9.2-8.5-15.8-10.9c-6.7-2.3-12.9-3.5-18.9-3.5c-3.5,0-7.1,0.4-10.7,1.2
			c-3.7,0.8-7.2,2.1-10.4,3.8c-3.3,1.7-5.9,4-8,6.9c-2,2.9-3.1,6.3-3.1,10.4c0,6.6,2.5,11.6,7.4,15c4.9,3.5,11.1,6.4,18.6,8.9
			c7.5,2.5,15.5,4.9,24.1,7.4c8.6,2.5,16.6,5.9,24.1,10.4c7.5,4.5,13.7,10.5,18.6,18.1c4.9,7.6,7.4,17.7,7.4,30.4
			c0,12.1-2.3,22.6-6.8,31.6c-4.5,9-10.6,16.5-18.3,22.4c-7.7,5.9-16.6,10.3-26.7,13.2c-10.1,2.9-20.8,4.3-32.1,4.3
			c-14.1,0-27.2-2.1-39.3-6.4c-12.1-4.3-23.3-11.3-33.8-20.9l34.1-37.4c4.9,6.6,11.1,11.6,18.6,15.2c7.5,3.6,15.2,5.4,23.2,5.4
			c3.9,0,7.8-0.5,11.8-1.4c4-0.9,7.6-2.3,10.7-4.1c3.2-1.8,5.7-4.2,7.7-7.1c1.9-2.9,2.9-6.2,2.9-10.1c0-6.5-2.5-11.7-7.5-15.5
			c-5-3.8-11.3-7-18.9-9.7c-7.6-2.7-15.8-5.3-24.6-8c-8.8-2.7-17-6.2-24.6-10.7c-7.6-4.5-13.9-10.4-18.9-17.8
			c-5-7.4-7.5-17.1-7.5-29.2c0-11.7,2.3-21.9,6.9-30.7c4.6-8.8,10.7-16.2,18.4-22.1c7.7-5.9,16.5-10.4,26.6-13.4
			c10-3,20.4-4.5,31-4.5c12.3,0,24.1,1.7,35.6,5.2c11.5,3.5,21.8,9.3,31,17.5L2246.2,304.8z"/>
	</g>
	<g id="Page-1_1_">
		<path id="Fill-17_1_" class="st0" d="M188.9,693.3L4.2,736.7c-3,0.7-5.4-2.7-3.6-5.3L395.3,145c0.5-0.7,1.2-1.2,2.1-1.4L582,100.2
			c3-0.7,5.4,2.7,3.6,5.3L190.9,691.9C190.4,692.6,189.7,693.1,188.9,693.3z M614.4,593.2l-184.6,43.4c-3,0.7-5.4-2.7-3.6-5.3
			L820.8,45c0.5-0.7,1.2-1.2,2.1-1.4l184.6-43.4c3-0.7,5.4,2.7,3.6,5.3L616.4,591.8C615.9,592.5,615.2,593,614.4,593.2z
			 M487.4,514.8l-184.6,43.4c-3,0.7-5.4-2.7-3.6-5.3L606.5,95.9c0.5-0.7,1.2-1.2,2.1-1.4L793.2,51c3-0.7,5.4,2.7,3.6,5.3
			L489.5,513.4C489,514.1,488.2,514.6,487.4,514.8z"/>
	</g>
</g>
</svg>
